<svg width="25" height="19" viewBox="0 0 25 19" fill="none" xmlns="http://www.w3.org/2000/svg">
<path d="M20.817 1.99197C19.287 1.30197 17.647 0.791974 15.932 0.501974C15.9167 0.499042 15.9009 0.500931 15.8868 0.507381C15.8726 0.513831 15.8608 0.524522 15.853 0.537974C15.643 0.906974 15.409 1.38797 15.245 1.76797C13.4261 1.49621 11.5769 1.49621 9.75799 1.76797C9.57533 1.34683 9.36934 0.936198 9.14099 0.537974C9.13325 0.524356 9.12154 0.513423 9.10743 0.506634C9.09331 0.499844 9.07746 0.497521 9.06199 0.499974C7.34799 0.789973 5.70799 1.29997 4.17699 1.99097C4.16382 1.9965 4.15265 2.00592 4.14499 2.01797C1.03299 6.59297 0.179992 11.055 0.598992 15.461C0.600158 15.4718 0.603508 15.4822 0.608837 15.4917C0.614167 15.5011 0.621364 15.5094 0.629992 15.516C2.44638 16.8384 4.47233 17.8458 6.62299 18.496C6.63798 18.5006 6.65402 18.5006 6.66901 18.4959C6.68399 18.4913 6.69723 18.4823 6.70699 18.47C7.16899 17.85 7.58099 17.195 7.93299 16.507C7.95399 16.467 7.93399 16.419 7.89199 16.403C7.246 16.1597 6.62008 15.8661 6.01999 15.525C6.00921 15.5188 6.00012 15.5101 5.99355 15.4995C5.98698 15.489 5.98312 15.477 5.98233 15.4646C5.98153 15.4522 5.98383 15.4398 5.98901 15.4286C5.99418 15.4173 6.00208 15.4075 6.01199 15.4C6.13799 15.307 6.26399 15.21 6.38399 15.113C6.39479 15.1043 6.4078 15.0987 6.42158 15.0969C6.43535 15.0952 6.44934 15.0973 6.46199 15.103C10.389 16.867 14.642 16.867 18.523 15.103C18.5357 15.0969 18.5498 15.0946 18.5638 15.0961C18.5778 15.0977 18.591 15.1032 18.602 15.112C18.722 15.21 18.847 15.307 18.974 15.4C18.984 15.4073 18.992 15.417 18.9974 15.4282C19.0027 15.4394 19.0052 15.4517 19.0046 15.4641C19.004 15.4765 19.0004 15.4885 18.994 15.4991C18.9876 15.5098 18.9787 15.5186 18.968 15.525C18.37 15.869 17.748 16.16 17.095 16.402C17.085 16.4056 17.0758 16.4114 17.0682 16.4188C17.0606 16.4263 17.0546 16.4353 17.0507 16.4452C17.0468 16.4551 17.0451 16.4658 17.0457 16.4764C17.0463 16.4871 17.0491 16.4975 17.054 16.507C17.414 17.194 17.826 17.848 18.279 18.469C18.2884 18.4817 18.3015 18.4912 18.3166 18.4963C18.3316 18.5013 18.3478 18.5015 18.363 18.497C20.5173 17.8486 22.5466 16.8407 24.365 15.516C24.3739 15.5098 24.3813 15.5017 24.3868 15.4924C24.3923 15.4831 24.3958 15.4727 24.397 15.462C24.897 10.368 23.559 5.94197 20.848 2.01997C20.8413 2.00723 20.8303 1.99729 20.817 1.99197ZM8.51999 12.778C7.33799 12.778 6.36299 11.709 6.36299 10.398C6.36299 9.08597 7.31899 8.01797 8.51999 8.01797C9.72999 8.01797 10.696 9.09497 10.677 10.398C10.677 11.71 9.72099 12.778 8.51999 12.778ZM16.495 12.778C15.312 12.778 14.338 11.709 14.338 10.398C14.338 9.08597 15.293 8.01797 16.495 8.01797C17.705 8.01797 18.671 9.09497 18.652 10.398C18.652 11.71 17.706 12.778 16.495 12.778Z" fill="#DFDFDF"/>
</svg>
