<svg width="25" height="24" viewBox="0 0 25 24" fill="none" xmlns="http://www.w3.org/2000/svg">
<path d="M6.12646 2L3.12646 6V20C3.12646 20.5304 3.33718 21.0391 3.71225 21.4142C4.08732 21.7893 4.59603 22 5.12646 22H19.1265C19.6569 22 20.1656 21.7893 20.5407 21.4142C20.9158 21.0391 21.1265 20.5304 21.1265 20V6L18.1265 2H6.12646Z" stroke="white" stroke-opacity="0.5" stroke-width="2" stroke-linecap="round" stroke-linejoin="round"/>
<path d="M16.1265 10C16.1265 11.0609 15.705 12.0783 14.9549 12.8284C14.2047 13.5786 13.1873 14 12.1265 14C11.0656 14 10.0482 13.5786 9.29804 12.8284C8.54789 12.0783 8.12646 11.0609 8.12646 10" stroke="white" stroke-opacity="0.5" stroke-width="2" stroke-linecap="round" stroke-linejoin="round"/>
<path d="M3.12646 6H21.1265" stroke="white" stroke-opacity="0.5" stroke-width="2" stroke-linecap="round" stroke-linejoin="round"/>
</svg>
